<svg width="294" height="100" viewBox="0 0 294 100" fill="none" xmlns="http://www.w3.org/2000/svg">
<g filter="url(#filter0_d)">
<path d="M40.6562 45.0625C40.6562 41.5417 38.9688 39.7812 35.5938 39.7812C34.1354 39.7812 32.5104 40.6979 30.7188 42.5312C28.0312 45.3021 26.1562 48.6042 25.0938 52.4375C24.7604 53.6458 24.5938 54.7604 24.5938 55.7812C24.5938 59.2396 26.3438 60.9688 29.8438 60.9688C31.2396 60.9896 32.8333 60.0625 34.625 58.1875C37.2292 55.4375 39.0729 52.1042 40.1562 48.1875C40.4896 46.9792 40.6562 45.9375 40.6562 45.0625ZM32.125 77.2188C24.7292 77.2188 18.3125 74.8229 12.875 70.0312C11.1458 68.5104 9.64583 66.7708 8.375 64.8125C5.66667 60.6667 4.3125 56.0312 4.3125 50.9062C4.3125 45.7604 5.5625 41.2083 8.0625 37.25C10.5625 33.2917 13.9167 30.2083 18.125 28C22.3333 25.7917 26.6875 24.6875 31.1875 24.6875C35.7083 24.6875 39.6875 25.2917 43.125 26.5C46.5625 27.7083 49.5521 29.4479 52.0938 31.7188C54.6562 33.9688 56.6667 36.7292 58.125 40C59.5833 43.2708 60.3125 46.9688 60.3125 51.0938C60.3125 56.2188 59.0104 60.7812 56.4062 64.7812C53.8021 68.7604 50.3333 71.8333 46 74C41.6667 76.1458 37.0417 77.2188 32.125 77.2188ZM84.4375 77.2188C75.0833 77.2188 68.875 76.0625 65.8125 73.75V59.4375C65.8958 59.4583 66.1979 59.5521 66.7188 59.7188C67.2604 59.8854 67.9375 60.0938 68.75 60.3438C70.6458 60.9271 72.6354 61.4792 74.7188 62C76.8229 62.5 78.5104 62.75 79.7812 62.75C81.8646 62.75 82.9062 62.1146 82.9062 60.8438C82.9062 59.8646 82.0104 58.8229 80.2188 57.7188C79.4062 57.2188 78.4792 56.6979 77.4375 56.1562C76.4167 55.6146 75.375 55.0104 74.3125 54.3438C71.7083 52.7396 69.6146 50.8646 68.0312 48.7188C66.4688 46.5729 65.6875 43.8646 65.6875 40.5938C65.6875 33.4479 69.4583 28.6458 77 26.1875C80.0625 25.1875 83.5938 24.6875 87.5938 24.6875C91.6146 24.6875 95.8125 25.1458 100.188 26.0625C101.083 26.25 101.677 26.3854 101.969 26.4688V40.8125C96.3021 39.6042 92.2292 39 89.75 39C88.7917 39 88.0729 39.1667 87.5938 39.5C87.1146 39.8333 86.875 40.2083 86.875 40.625C86.875 41.0417 87.0833 41.4792 87.5 41.9375C87.9167 42.375 88.6354 42.8229 89.6562 43.2812C90.6771 43.7188 91.8646 44.2604 93.2188 44.9062C94.5938 45.5312 95.875 46.2083 97.0625 46.9375C102.396 50.2083 105.062 54.6771 105.062 60.3438C105.062 65.7188 103.25 69.875 99.625 72.8125C95.9583 75.7292 90.8958 77.1979 84.4375 77.2188ZM151.062 42.3438C149.708 41.8229 148.26 41.5625 146.719 41.5625C143.552 41.5625 140.792 42.7188 138.438 45.0312C136.104 47.3229 134.938 50.0729 134.938 53.2812C134.938 55.4271 135.354 57.1042 136.188 58.3125C137.021 59.5208 138.156 60.125 139.594 60.125C141.031 60.125 142.615 59.7604 144.344 59.0312C146.094 58.2812 148.656 56.6667 152.031 54.1875V74.5312C147.594 76.3229 142.875 77.2188 137.875 77.2188C132.896 77.2188 128.302 76.2604 124.094 74.3438C117.406 71.2812 113 66.4896 110.875 59.9688C110.167 57.7396 109.802 55.2812 109.781 52.5938C109.781 49.9062 110.115 47.3333 110.781 44.875C111.448 42.4167 112.417 40.1458 113.688 38.0625C116.229 33.875 119.792 30.5938 124.375 28.2188C128.979 25.8438 134.25 24.6667 140.188 24.6875C144.708 24.6875 148.333 25.1979 151.062 26.2188V42.3438ZM156.594 76L181.406 28.625C182.26 26.9375 183.833 25.8125 186.125 25.25C186.792 25.0833 187.615 25 188.594 25C189.573 25 190.635 25.2812 191.781 25.8438C192.948 26.3854 193.865 27.25 194.531 28.4375L221.156 76H195.812L193.844 71.0625H180.344L178.656 76H156.594ZM181.875 61.1562H191.969L187.188 47.6562L181.875 61.1562ZM257.531 41.875C257.531 38.9375 256.438 37.4688 254.25 37.4688C253.312 37.4688 252.01 37.8125 250.344 38.5L246.188 40.2188V52.4375C253.75 49.625 257.531 46.1042 257.531 41.875ZM276.094 42.4062C276.094 49.0729 272.802 54.3646 266.219 58.2812L279.781 76H255.094L246.312 61.5312V76H225.906V26.0938C239.115 25.1562 247.771 24.6875 251.875 24.6875C255.979 24.6875 259.104 24.9375 261.25 25.4375C267.167 26.7917 271.396 29.6875 273.938 34.125C275.354 36.6667 276.073 39.4271 276.094 42.4062Z" fill="#FBFBFB"/>
</g>
<defs>
<filter id="filter0_d" x="0.3125" y="24.6872" width="283.469" height="60.5315" filterUnits="userSpaceOnUse" color-interpolation-filters="sRGB">
<feFlood flood-opacity="0" result="BackgroundImageFix"/>
<feColorMatrix in="SourceAlpha" type="matrix" values="0 0 0 0 0 0 0 0 0 0 0 0 0 0 0 0 0 0 127 0"/>
<feOffset dy="4"/>
<feGaussianBlur stdDeviation="2"/>
<feColorMatrix type="matrix" values="0 0 0 0 0 0 0 0 0 0 0 0 0 0 0 0 0 0 0.25 0"/>
<feBlend mode="normal" in2="BackgroundImageFix" result="effect1_dropShadow"/>
<feBlend mode="normal" in="SourceGraphic" in2="effect1_dropShadow" result="shape"/>
</filter>
</defs>
</svg>
